<svg
  width="64"
  height="64"
  viewBox="0 0 64 64"
  fill="none"
  xmlns="http://www.w3.org/2000/svg"
>
  <path
    d="M25.177 47.5C16.7958 47.5 10 40.7042 10 32.323C10 23.9418 16.7958 17.146 25.177 17.146C27.2069 17.146 29.1436 17.5448 30.9146 18.2685C33.2752 12.7567 38.747 8.89996 45.1213 8.89996C53.6519 8.89996 60.5688 15.8168 60.5688 24.3475C60.5688 25.1062 60.5141 25.8521 60.4083 26.5814C62.6115 28.6863 64 31.6544 64 34.9466C64 41.3268 58.8268 46.5 52.4465 46.5H25.177V47.5Z"
    fill="#4C97FF"
  />
  <path
    d="M8.23154 28.6261C9.74462 28.6261 10.9708 27.3998 10.9708 25.8868C10.9708 24.3737 9.74462 23.1474 8.23154 23.1474C6.71846 23.1474 5.49219 24.3737 5.49219 25.8868C5.49219 27.3998 6.71846 28.6261 8.23154 28.6261Z"
    fill="#D9EEFF"
  />
  <path
    d="M19.0869 18.6185L21.0586 13.6172L23.0302 18.6185L28.0315 20.5901L23.0302 22.5618L21.0586 27.5631L19.0869 22.5618L14.0856 20.5901L19.0869 18.6185Z"
    fill="white"
  />
  <path
    d="M13.8174 35.5047L14.9974 32.5127L16.1774 35.5047L19.1694 36.6847L16.1774 37.8647L14.9974 40.8567L13.8174 37.8647L10.8254 36.6847L13.8174 35.5047Z"
    fill="white"
    fill-opacity="0.92"
  />
</svg>
